{
  "accessors": [
    {
      "bufferView": 2,
      "componentType": 5126,
      "count": 5273,
      "max": [
        19.941986083984375,
        11.128437042236328,
        105.05474853515625
      ],
      "min": [
        -19.949209213256836,
        -15.619536399841309,
        8.009927749633789
      ],
      "type": "VEC3"
    },
    {
      "bufferView": 2,
      "byteOffset": 63276,
      "componentType": 5126,
      "count": 5273,
      "max": [
        0.9999439716339111,
        0.9998798370361328,
        0.9954330325126648
      ],
      "min": [
        -0.9999759197235107,
        -0.9998986721038818,
        -0.9988323450088501
      ],
      "type": "VEC3"
    },
    {
      "bufferView": 1,
      "componentType": 5126,
      "count": 5273,
      "max": [
        0.9995771646499634,
        0.9707664251327515
      ],
      "min": [
        0.00042281131027266383,
        0.00042281131027266383
      ],
      "type": "VEC2"
    },
    {
      "bufferView": 1,
      "byteOffset": 42184,
      "componentType": 5126,
      "count": 5273,
      "max": [
        0.9995771646499634,
        0.9707664251327515
      ],
      "min": [
        0.00042281131027266383,
        0.00042281131027266383
      ],
      "type": "VEC2"
    },
    {
      "bufferView": 1,
      "byteOffset": 84368,
      "componentType": 5126,
      "count": 5273,
      "max": [
        0.9995771646499634,
        0.9707664251327515
      ],
      "min": [
        0.00042281131027266383,
        0.00042281131027266383
      ],
      "type": "VEC2"
    },
    {
      "bufferView": 0,
      "componentType": 5125,
      "count": 22674,
      "type": "SCALAR"
    },
    {
      "bufferView": 2,
      "byteOffset": 126552,
      "componentType": 5126,
      "count": 2540,
      "max": [
        22.235000610351563,
        10.708413124084473,
        17.972576141357422
      ],
      "min": [
        -22.235000610351563,
        -19.69597053527832,
        -0.15589232742786407
      ],
      "type": "VEC3"
    },
    {
      "bufferView": 2,
      "byteOffset": 157032,
      "componentType": 5126,
      "count": 2540,
      "max": [
        0.9999893307685852,
        0.9966604709625244,
        0.9999181032180786
      ],
      "min": [
        -0.9999889731407166,
        -0.9999590516090393,
        -0.999788224697113
      ],
      "type": "VEC3"
    },
    {
      "bufferView": 1,
      "byteOffset": 126552,
      "componentType": 5126,
      "count": 2540,
      "max": [
        0.8830443620681763,
        0.9997459053993225
      ],
      "min": [
        0.0002541102876421064,
        0.0002541102876421064
      ],
      "type": "VEC2"
    },
    {
      "bufferView": 1,
      "byteOffset": 146872,
      "componentType": 5126,
      "count": 2540,
      "max": [
        0.8830443620681763,
        0.9997459053993225
      ],
      "min": [
        0.0002541102876421064,
        0.0002541102876421064
      ],
      "type": "VEC2"
    },
    {
      "bufferView": 1,
      "byteOffset": 167192,
      "componentType": 5126,
      "count": 2540,
      "max": [
        0.8830443620681763,
        0.9997459053993225
      ],
      "min": [
        0.0002541102876421064,
        0.0002541102876421064
      ],
      "type": "VEC2"
    },
    {
      "bufferView": 0,
      "byteOffset": 90696,
      "componentType": 5125,
      "count": 12336,
      "type": "SCALAR"
    },
    {
      "bufferView": 2,
      "byteOffset": 187512,
      "componentType": 5126,
      "count": 9705,
      "max": [
        28.673320770263672,
        8.211724281311035,
        176.3610076904297
      ],
      "min": [
        -28.155519485473633,
        -14.911365509033203,
        70.15425109863281
      ],
      "type": "VEC3"
    },
    {
      "bufferView": 2,
      "byteOffset": 303972,
      "componentType": 5126,
      "count": 9705,
      "max": [
        0.9999755024909973,
        0.9999415874481201,
        0.9999999403953552
      ],
      "min": [
        -0.9999755024909973,
        -0.9998882412910461,
        -0.9999999403953552
      ],
      "type": "VEC3"
    },
    {
      "bufferView": 1,
      "byteOffset": 187512,
      "componentType": 5126,
      "count": 9705,
      "max": [
        0.9972119927406311,
        0.9957000017166138
      ],
      "min": [
        0.2613010108470917,
        0.5582680106163025
      ],
      "type": "VEC2"
    },
    {
      "bufferView": 1,
      "byteOffset": 265152,
      "componentType": 5126,
      "count": 9705,
      "max": [
        0.9972119927406311,
        0.9957000017166138
      ],
      "min": [
        0.2613010108470917,
        0.5582680106163025
      ],
      "type": "VEC2"
    },
    {
      "bufferView": 0,
      "byteOffset": 140040,
      "componentType": 5125,
      "count": 54720,
      "type": "SCALAR"
    },
    {
      "bufferView": 2,
      "byteOffset": 420432,
      "componentType": 5126,
      "count": 5160,
      "max": [
        29.892513275146484,
        12.465522766113281,
        156.42306518554688
      ],
      "min": [
        -29.19186019897461,
        -16.506484985351563,
        89.42466735839844
      ],
      "type": "VEC3"
    },
    {
      "bufferView": 2,
      "byteOffset": 482352,
      "componentType": 5126,
      "count": 5160,
      "max": [
        0.9997377991676331,
        0.9999896883964539,
        0.9988226294517517
      ],
      "min": [
        -0.9999625086784363,
        -0.99952632188797,
        -0.9997199773788452
      ],
      "type": "VEC3"
    },
    {
      "bufferView": 1,
      "byteOffset": 342792,
      "componentType": 5126,
      "count": 5160,
      "max": [
        0.9993811845779419,
        0.9840983152389526
      ],
      "min": [
        0.0006188269471749663,
        0.0006188269471749663
      ],
      "type": "VEC2"
    },
    {
      "bufferView": 1,
      "byteOffset": 384072,
      "componentType": 5126,
      "count": 5160,
      "max": [
        0.9993811845779419,
        0.9840983152389526
      ],
      "min": [
        0.0006188269471749663,
        0.0006188269471749663
      ],
      "type": "VEC2"
    },
    {
      "bufferView": 1,
      "byteOffset": 425352,
      "componentType": 5126,
      "count": 5160,
      "max": [
        0.9993811845779419,
        0.9840983152389526
      ],
      "min": [
        0.0006188269471749663,
        0.0006188269471749663
      ],
      "type": "VEC2"
    },
    {
      "bufferView": 0,
      "byteOffset": 358920,
      "componentType": 5125,
      "count": 20790,
      "type": "SCALAR"
    },
    {
      "bufferView": 2,
      "byteOffset": 544272,
      "componentType": 5126,
      "count": 3754,
      "max": [
        10.026389122009277,
        9.649056434631348,
        178.661865234375
      ],
      "min": [
        -10.026392936706543,
        -15.516580581665039,
        161.59957885742188
      ],
      "type": "VEC3"
    },
    {
      "bufferView": 2,
      "byteOffset": 589320,
      "componentType": 5126,
      "count": 3754,
      "max": [
        0.9998947978019714,
        0.9999971389770508,
        0.9999718070030212
      ],
      "min": [
        -0.9998947978019714,
        -0.9940036535263062,
        -0.9998337030410767
      ],
      "type": "VEC3"
    },
    {
      "bufferView": 1,
      "byteOffset": 466632,
      "componentType": 5126,
      "count": 3754,
      "max": [
        0.9998190999031067,
        0.7902655601501465
      ],
      "min": [
        0.0001808217348298058,
        0.0001808217348298058
      ],
      "type": "VEC2"
    },
    {
      "bufferView": 1,
      "byteOffset": 496664,
      "componentType": 5126,
      "count": 3754,
      "max": [
        0.9998190999031067,
        0.7902655601501465
      ],
      "min": [
        0.0001808217348298058,
        0.0001808217348298058
      ],
      "type": "VEC2"
    },
    {
      "bufferView": 1,
      "byteOffset": 526696,
      "componentType": 5126,
      "count": 3754,
      "max": [
        0.9998190999031067,
        0.7902655601501465
      ],
      "min": [
        0.0001808217348298058,
        0.0001808217348298058
      ],
      "type": "VEC2"
    },
    {
      "bufferView": 0,
      "byteOffset": 442080,
      "componentType": 5125,
      "count": 19728,
      "type": "SCALAR"
    },
    {
      "bufferView": 2,
      "byteOffset": 634368,
      "componentType": 5126,
      "count": 2319,
      "max": [
        9.13241195678711,
        8.67509937286377,
        172.41554260253906
      ],
      "min": [
        -10.12288761138916,
        -10.388540267944336,
        153.2984161376953
      ],
      "type": "VEC3"
    },
    {
      "bufferView": 2,
      "byteOffset": 662196,
      "componentType": 5126,
      "count": 2319,
      "max": [
        0.9999232888221741,
        0.9997069835662842,
        0.9612279534339905
      ],
      "min": [
        -0.9999606013298035,
        -0.790831446647644,
        -0.6938673257827759
      ],
      "type": "VEC3"
    },
    {
      "bufferView": 1,
      "byteOffset": 556728,
      "componentType": 5126,
      "count": 2319,
      "max": [
        0.9965959787368774,
        0.9991229772567749
      ],
      "min": [
        0.0028470000252127647,
        0.0029249999206513166
      ],
      "type": "VEC2"
    },
    {
      "bufferView": 1,
      "byteOffset": 575280,
      "componentType": 5126,
      "count": 2319,
      "max": [
        0.9965959787368774,
        0.9991229772567749
      ],
      "min": [
        0.0028470000252127647,
        0.0029249999206513166
      ],
      "type": "VEC2"
    },
    {
      "bufferView": 0,
      "byteOffset": 520992,
      "componentType": 5125,
      "count": 7482,
      "type": "SCALAR"
    }
  ],
  "asset": {
    "extras": {
      "author": "Nyayata (https://sketchfab.com/Nyayata)",
      "license": "CC-BY-4.0 (http://creativecommons.org/licenses/by/4.0/)",
      "source": "https://sketchfab.com/3d-models/avatar-safety-uniform-11988638b3104689ab1f4275598f6ff2",
      "title": "Avatar Safety Uniform"
    },
    "generator": "Sketchfab-12.65.0",
    "version": "2.0"
  },
  "bufferViews": [
    {
      "buffer": 0,
      "byteLength": 550920,
      "name": "floatBufferViews",
      "target": 34963
    },
    {
      "buffer": 0,
      "byteLength": 593832,
      "byteOffset": 550920,
      "byteStride": 8,
      "name": "floatBufferViews",
      "target": 34962
    },
    {
      "buffer": 0,
      "byteLength": 690024,
      "byteOffset": 1144752,
      "byteStride": 12,
      "name": "floatBufferViews",
      "target": 34962
    }
  ],
  "buffers": [
    {
      "byteLength": 1834776,
      "uri": "scene.bin"
    }
  ],
  "images": [
    {
      "uri": "textures/avatar_pants_baseColor.png"
    },
    {
      "uri": "textures/avatar_boots_baseColor.png"
    },
    {
      "uri": "textures/avatar_shirt_baseColor.png"
    },
    {
      "uri": "textures/avatar_helmet_baseColor.png"
    },
    {
      "uri": "textures/Ch17_hair_baseColor.png"
    }
  ],
  "materials": [
    {
      "doubleSided": true,
      "name": "avatar_pants",
      "pbrMetallicRoughness": {
        "baseColorTexture": {
          "index": 0
        },
        "metallicFactor": 0.0,
        "roughnessFactor": 0.8211145618000169
      }
    },
    {
      "doubleSided": true,
      "name": "avatar_boots",
      "pbrMetallicRoughness": {
        "baseColorTexture": {
          "index": 1
        },
        "metallicFactor": 0.0,
        "roughnessFactor": 0.8211145618000169
      }
    },
    {
      "doubleSided": true,
      "name": "Ch17_body",
      "pbrMetallicRoughness": {
        "metallicFactor": 0.0,
        "roughnessFactor": 0.7885257473118872
      }
    },
    {
      "doubleSided": true,
      "name": "avatar_shirt",
      "pbrMetallicRoughness": {
        "baseColorTexture": {
          "index": 2
        },
        "metallicFactor": 0.0,
        "roughnessFactor": 0.8211145618000169
      }
    },
    {
      "doubleSided": true,
      "name": "avatar_helmet",
      "pbrMetallicRoughness": {
        "baseColorTexture": {
          "index": 3
        },
        "metallicFactor": 0.0,
        "roughnessFactor": 0.8040408205773457
      }
    },
    {
      "doubleSided": true,
      "name": "Ch17_hair",
      "pbrMetallicRoughness": {
        "baseColorTexture": {
          "index": 4
        },
        "metallicFactor": 0.0,
        "roughnessFactor": 0.7885257473118872
      }
    }
  ],
  "meshes": [
    {
      "name": "Ch17_Pants_avatar_pants_0",
      "primitives": [
        {
          "attributes": {
            "NORMAL": 1,
            "POSITION": 0,
            "TEXCOORD_0": 2,
            "TEXCOORD_1": 3,
            "TEXCOORD_2": 4
          },
          "indices": 5,
          "material": 0,
          "mode": 4
        }
      ]
    },
    {
      "name": "Ch17_Boots_avatar_boots_0",
      "primitives": [
        {
          "attributes": {
            "NORMAL": 7,
            "POSITION": 6,
            "TEXCOORD_0": 8,
            "TEXCOORD_1": 9,
            "TEXCOORD_2": 10
          },
          "indices": 11,
          "material": 1,
          "mode": 4
        }
      ]
    },
    {
      "name": "Ch17_Body_Ch17_body_0",
      "primitives": [
        {
          "attributes": {
            "NORMAL": 13,
            "POSITION": 12,
            "TEXCOORD_0": 14,
            "TEXCOORD_1": 15
          },
          "indices": 16,
          "material": 2,
          "mode": 4
        }
      ]
    },
    {
      "name": "Ch17_Shirt_avatar_shirt_0",
      "primitives": [
        {
          "attributes": {
            "NORMAL": 18,
            "POSITION": 17,
            "TEXCOORD_0": 19,
            "TEXCOORD_1": 20,
            "TEXCOORD_2": 21
          },
          "indices": 22,
          "material": 3,
          "mode": 4
        }
      ]
    },
    {
      "name": "Ch17_Helmet_avatar_helmet_0",
      "primitives": [
        {
          "attributes": {
            "NORMAL": 24,
            "POSITION": 23,
            "TEXCOORD_0": 25,
            "TEXCOORD_1": 26,
            "TEXCOORD_2": 27
          },
          "indices": 28,
          "material": 4,
          "mode": 4
        }
      ]
    },
    {
      "name": "Ch17_Hair_Ch17_hair_0",
      "primitives": [
        {
          "attributes": {
            "NORMAL": 30,
            "POSITION": 29,
            "TEXCOORD_0": 31,
            "TEXCOORD_1": 32
          },
          "indices": 33,
          "material": 5,
          "mode": 4
        }
      ]
    }
  ],
  "nodes": [
    {
      "children": [
        1
      ],
      "matrix": [
        1.0,
        0.0,
        0.0,
        0.0,
        0.0,
        2.220446049250313e-16,
        -1.0,
        0.0,
        0.0,
        1.0,
        2.220446049250313e-16,
        0.0,
        0.0,
        0.0,
        0.0,
        1.0
      ],
      "name": "Sketchfab_model"
    },
    {
      "children": [
        2
      ],
      "matrix": [
        1.0,
        0.0,
        0.0,
        0.0,
        0.0,
        0.0,
        1.0,
        0.0,
        0.0,
        -1.0,
        0.0,
        0.0,
        0.0,
        0.0,
        0.0,
        1.0
      ],
      "name": "avatar.fbx"
    },
    {
      "children": [
        3,
        5,
        7,
        9,
        11,
        13
      ],
      "name": "RootNode"
    },
    {
      "children": [
        4
      ],
      "matrix": [
        1.2000001668930054,
        0.0,
        0.0,
        0.0,
        0.0,
        -1.9550484246051952e-07,
        -1.2000001668929896,
        0.0,
        0.0,
        1.2000001668929896,
        -1.9550484246051952e-07,
        0.0,
        0.0,
        0.0,
        0.0,
        1.0
      ],
      "name": "Ch17_Pants"
    },
    {
      "mesh": 0,
      "name": "Ch17_Pants_avatar_pants_0"
    },
    {
      "children": [
        6
      ],
      "matrix": [
        1.2000001668930054,
        0.0,
        0.0,
        0.0,
        0.0,
        -1.9550484246051952e-07,
        -1.2000001668929896,
        0.0,
        0.0,
        1.2000001668929896,
        -1.9550484246051952e-07,
        0.0,
        0.0,
        0.0,
        0.0,
        1.0
      ],
      "name": "Ch17_Boots"
    },
    {
      "mesh": 1,
      "name": "Ch17_Boots_avatar_boots_0"
    },
    {
      "children": [
        8
      ],
      "matrix": [
        1.2000001668930054,
        0.0,
        0.0,
        0.0,
        0.0,
        -1.9550484246051952e-07,
        -1.2000001668929896,
        0.0,
        0.0,
        1.2000001668929896,
        -1.9550484246051952e-07,
        0.0,
        0.0,
        0.0,
        0.0,
        1.0
      ],
      "name": "Ch17_Body"
    },
    {
      "mesh": 2,
      "name": "Ch17_Body_Ch17_body_0"
    },
    {
      "children": [
        10
      ],
      "matrix": [
        1.2000001668930054,
        0.0,
        0.0,
        0.0,
        0.0,
        -1.9550484246051952e-07,
        -1.2000001668929896,
        0.0,
        0.0,
        1.2000001668929896,
        -1.9550484246051952e-07,
        0.0,
        0.0,
        0.0,
        0.0,
        1.0
      ],
      "name": "Ch17_Shirt"
    },
    {
      "mesh": 3,
      "name": "Ch17_Shirt_avatar_shirt_0"
    },
    {
      "children": [
        12
      ],
      "matrix": [
        1.2000001668930054,
        0.0,
        0.0,
        0.0,
        0.0,
        -1.9550484246051952e-07,
        -1.2000001668929896,
        0.0,
        0.0,
        1.2000001668929896,
        -1.9550484246051952e-07,
        0.0,
        0.0,
        0.0,
        0.0,
        1.0
      ],
      "name": "Ch17_Helmet"
    },
    {
      "mesh": 4,
      "name": "Ch17_Helmet_avatar_helmet_0"
    },
    {
      "children": [
        14
      ],
      "matrix": [
        1.2000001668930054,
        0.0,
        0.0,
        0.0,
        0.0,
        -1.9550484246051952e-07,
        -1.2000001668929896,
        0.0,
        0.0,
        1.2000001668929896,
        -1.9550484246051952e-07,
        0.0,
        0.0,
        0.0,
        0.0,
        1.0
      ],
      "name": "Ch17_Hair"
    },
    {
      "mesh": 5,
      "name": "Ch17_Hair_Ch17_hair_0"
    }
  ],
  "samplers": [
    {
      "magFilter": 9729,
      "minFilter": 9987,
      "wrapS": 10497,
      "wrapT": 10497
    }
  ],
  "scene": 0,
  "scenes": [
    {
      "name": "Sketchfab_Scene",
      "nodes": [
        0
      ]
    }
  ],
  "textures": [
    {
      "sampler": 0,
      "source": 0
    },
    {
      "sampler": 0,
      "source": 1
    },
    {
      "sampler": 0,
      "source": 2
    },
    {
      "sampler": 0,
      "source": 3
    },
    {
      "sampler": 0,
      "source": 4
    }
  ]
}
